<?xml version="1.0" standalone="no"?><!DOCTYPE svg PUBLIC "-//W3C//DTD SVG 1.1//EN" "http://www.w3.org/Graphics/SVG/1.1/DTD/svg11.dtd"><svg t="1553270557194" class="icon" style="" viewBox="0 0 1024 1024" version="1.1" xmlns="http://www.w3.org/2000/svg" p-id="1481" xmlns:xlink="http://www.w3.org/1999/xlink" width="200" height="200"><defs><style type="text/css"></style></defs><path d="M165.91872 648.45824a10.20928 10.20928 0 0 0 7.23968-3.00032l31.15008-31.16032C204.52352 783.77984 342.46656 921.61024 512 921.61024c169.53344 0 307.47648-137.82016 307.69152-307.3024l31.15008 31.16032a10.20928 10.20928 0 0 0 14.47936 0 10.22976 10.22976 0 0 0 0-14.47936l-48.61952-48.62976a10.20928 10.20928 0 0 0-14.47936 0l-48.62976 48.62976a10.22976 10.22976 0 1 0 14.47936 14.47936l31.13984-31.13984c-0.22528 154.9824-123.84256 281.50784-277.66784 286.5664 0.38912-1.10592 0.69632-2.24256 0.69632-3.47136v-530.8416h114.60608a10.24 10.24 0 1 0 0-20.48H522.24v-81.33632c40.13056-5.05856 71.30112-39.34208 71.30112-80.82432C593.54112 138.97728 556.96384 102.4 512 102.4s-81.54112 36.57728-81.54112 81.54112c0 41.49248 31.17056 75.76576 71.30112 80.82432v81.33632H387.15392a10.24 10.24 0 1 0 0 20.48H501.76v530.83136c0 1.2288 0.29696 2.37568 0.69632 3.46112-153.82528-5.05856-277.44256-131.57376-277.66784-286.5664l31.13984 31.13984a10.22976 10.22976 0 1 0 14.47936-14.47936l-48.62976-48.62976a10.5472 10.5472 0 0 0-14.47936 0l-48.61952 48.62976a10.22976 10.22976 0 0 0 7.23968 17.48992z m285.02016-464.51712A61.1328 61.1328 0 0 1 512 122.88c33.66912 0 61.06112 27.392 61.06112 61.06112S545.66912 245.00224 512 245.00224a61.1328 61.1328 0 0 1-61.06112-61.06112z" p-id="1482"></path></svg>